<?xml version="1.0" standalone="no"?>
<!DOCTYPE svg PUBLIC "-//W3C//DTD SVG 20010904//EN"
 "http://www.w3.org/TR/2001/REC-SVG-20010904/DTD/svg10.dtd">
<svg version="1.0" xmlns="http://www.w3.org/2000/svg"
 width="250.000000pt" height="250.000000pt" viewBox="0 0 250.000000 250.000000"
 preserveAspectRatio="xMidYMid meet">
<metadata>
Created by potrace 1.10, written by Peter Selinger 2001-2011
</metadata>
<g transform="translate(0.000000,250.000000) scale(0.100000,-0.100000)"
fill="#000000" stroke="none">
<path d="M1170 2438 c-17 -29 -36 -62 -43 -73 -7 -10 -30 -49 -52 -85 -21 -36
-42 -67 -45 -70 -3 -3 -14 -21 -24 -40 -11 -19 -69 -116 -129 -215 -61 -99
-121 -198 -135 -220 -13 -22 -39 -65 -59 -95 -19 -30 -38 -65 -43 -77 -5 -12
-34 -60 -64 -107 l-56 -86 88 0 87 0 25 45 c14 24 83 138 154 252 72 114 136
220 144 236 7 15 19 27 25 27 9 0 11 -41 9 -155 -2 -85 1 -155 5 -155 4 0 74
32 155 72 l148 73 0 89 c0 77 2 87 15 76 8 -7 15 -16 15 -20 0 -7 34 -67 100
-175 14 -22 32 -52 40 -68 41 -74 123 -209 136 -222 9 -8 13 -15 9 -15 -3 0 3
-13 15 -30 21 -29 24 -30 101 -30 43 0 79 2 79 4 0 9 -85 141 -92 144 -5 2 -8
10 -8 18 0 8 -10 31 -23 52 -13 20 -26 44 -30 52 -4 8 -13 24 -19 35 -26 39
-74 121 -117 198 -9 16 -21 36 -26 45 -6 9 -43 73 -84 142 -41 69 -100 168
-132 220 -31 52 -71 120 -87 150 -17 30 -35 56 -41 58 -5 2 -24 -21 -41 -50z
m121 -137 c38 -62 69 -114 69 -116 0 -2 46 -79 101 -172 119 -197 279 -472
279 -479 0 -3 13 -25 29 -48 34 -49 34 -79 2 -84 -24 -4 -71 22 -71 39 0 6
-13 29 -29 52 -32 48 -111 177 -111 183 0 7 -123 210 -147 242 -44 59 -83 29
-83 -66 0 -26 -6 -54 -13 -63 -15 -19 -197 -109 -220 -109 -15 0 -17 14 -17
113 0 114 -12 157 -44 157 -13 0 -69 -54 -67 -64 1 -4 -19 -39 -44 -79 -25
-39 -86 -139 -136 -222 -51 -82 -97 -156 -104 -164 -15 -15 -95 -25 -95 -11 0
4 27 52 60 107 32 54 76 127 96 163 36 63 82 139 229 375 38 61 100 162 138
225 79 132 86 142 100 137 5 -1 41 -54 78 -116z"/>
<path d="M1395 1713 c-68 -28 -428 -213 -447 -230 -20 -18 -24 -43 -8 -43 6 0
27 7 47 15 55 23 60 20 61 -31 1 -26 3 -48 5 -50 2 -2 71 28 153 68 82 40 150
73 151 73 1 0 4 27 6 59 4 39 11 62 21 68 8 5 22 15 30 23 8 8 19 15 25 15 9
0 31 31 31 44 0 11 -34 5 -75 -11z m-73 -128 c-2 -16 -7 -34 -12 -40 -5 -5
-54 -32 -109 -60 -105 -51 -114 -51 -126 -5 -6 24 0 29 107 82 62 32 120 56
128 55 10 -2 14 -12 12 -32z"/>
<path d="M1400 1483 c-22 -8 -403 -197 -415 -205 -50 -38 -57 -46 -52 -55 5
-8 21 -7 54 3 25 8 50 14 54 14 5 0 6 -22 3 -50 -3 -36 -1 -50 8 -50 7 0 78
33 158 73 80 39 146 72 148 73 1 1 3 28 5 60 2 57 3 60 38 77 20 10 47 29 59
42 l23 25 -34 -1 c-19 0 -41 -3 -49 -6z m-82 -130 c-3 -37 -5 -39 -103 -90
-55 -29 -107 -52 -115 -53 -9 0 -21 14 -27 30 l-11 31 116 59 c64 32 123 59
130 59 9 1 12 -10 10 -36z"/>
<path d="M1420 1252 c-55 -19 -367 -173 -432 -214 -27 -17 -48 -36 -48 -44 0
-11 8 -11 48 1 26 8 50 15 55 15 4 0 7 -21 7 -46 0 -42 1 -45 23 -38 12 4 39
18 59 30 21 13 42 24 48 24 6 0 8 5 4 12 -4 6 -3 8 4 4 12 -7 62 13 62 26 0 4
5 8 11 8 7 0 31 10 55 22 43 21 44 23 44 68 0 45 2 48 55 85 31 21 58 41 60
46 10 15 -11 16 -55 1z m-105 -131 c0 -20 -17 -32 -108 -79 -103 -53 -108 -54
-122 -36 -8 10 -15 21 -15 24 0 10 215 120 230 117 8 -1 15 -13 15 -26z"/>
<path d="M416 1192 c-2 -4 -15 -44 -27 -87 -32 -113 -32 -314 -1 -435 24 -89
79 -220 93 -220 5 0 9 -5 9 -11 0 -27 119 -158 203 -224 94 -73 273 -149 382
-161 139 -15 195 -11 344 22 66 15 213 79 219 95 2 5 9 9 16 9 21 0 176 135
176 154 0 6 16 29 35 51 19 22 35 45 35 52 0 7 4 13 8 13 12 0 66 121 92 205
16 51 24 106 27 200 5 118 3 139 -21 229 -15 55 -28 101 -29 102 -1 1 -39 4
-85 6 -71 3 -82 1 -78 -12 2 -8 17 -46 32 -85 38 -102 45 -268 15 -378 -31
-112 -83 -210 -150 -278 -31 -33 -55 -62 -52 -64 2 -3 -1 -5 -8 -5 -7 0 -30
-13 -50 -29 -64 -50 -217 -119 -286 -128 -61 -8 -189 -5 -250 7 -72 13 -205
70 -239 102 -11 10 -24 18 -29 18 -19 0 -103 86 -141 145 -49 75 -94 164 -100
198 -2 15 -7 30 -10 35 -2 4 -10 45 -16 91 -15 114 11 276 58 348 7 12 11 27
7 33 -7 12 -171 14 -179 2z m118 -52 c-1 -14 -10 -54 -20 -90 -27 -96 -24
-261 6 -360 49 -159 161 -320 270 -388 139 -87 259 -122 418 -122 448 0 781
410 686 845 -31 141 -31 135 10 135 45 0 60 -22 81 -118 27 -129 13 -328 -30
-427 -46 -107 -69 -149 -124 -223 -77 -103 -170 -180 -281 -233 -321 -154
-703 -81 -940 178 -138 150 -202 302 -216 508 -7 95 10 217 39 287 14 33 18
35 58 34 40 -1 44 -3 43 -26z"/>
<path d="M1420 1033 c-8 -3 -94 -44 -190 -91 -190 -93 -290 -151 -290 -168 0
-13 48 -7 67 8 25 20 43 0 43 -46 l0 -45 153 77 152 77 3 52 c3 50 3 51 62 87
33 21 60 41 60 47 0 10 -35 11 -60 2z m-100 -127 c0 -29 -4 -33 -118 -92 -73
-37 -97 -45 -110 -37 -39 24 -24 40 88 97 61 31 117 56 125 56 9 0 15 -10 15
-24z"/>
<path d="M1400 802 c-76 -25 -311 -144 -317 -159 -3 -8 -2 -18 3 -22 10 -7 74
-99 74 -107 0 -9 43 -64 50 -64 4 0 36 46 71 103 35 56 67 105 72 108 4 3 9
18 11 32 3 26 32 60 72 83 19 11 33 45 17 43 -4 -1 -28 -8 -53 -17z m-128
-185 c-28 -45 -55 -83 -61 -85 -9 -3 -71 82 -71 98 0 7 125 72 155 80 34 10
29 -8 -23 -93z"/>
</g>
</svg>
